<svg width="24" height="24" viewBox="0 0 24 24" fill="none" xmlns="http://www.w3.org/2000/svg">
<path d="M2.83176 3.5366C2.36231 3.5366 1.98176 3.91715 1.98176 4.3866C1.98176 4.85604 2.36231 5.2366 2.83176 5.2366V3.5366ZM10.66 5.35386C10.1905 5.35386 9.80996 5.73442 9.80996 6.20386C9.80996 6.6733 10.1905 7.05386 10.66 7.05386V5.35386ZM18.9533 15.8116L19.7533 16.0988L18.9533 15.8116ZM2.83176 5.2366H3.34338V3.5366H2.83176V5.2366ZM4.40148 6.01808L7.46542 15.9759L9.09024 15.4759L6.0263 5.51813L4.40148 6.01808ZM10.1483 17.9574H17.1114V16.2574H10.1483V17.9574ZM19.7533 16.0988L21.7924 10.4184L20.1924 9.84408L18.1533 15.5244L19.7533 16.0988ZM18.2295 5.35386H10.66V7.05386H18.2295V5.35386ZM21.7924 10.4184C22.6778 7.9521 20.8499 5.35386 18.2295 5.35386V7.05386C19.6732 7.05386 20.6802 8.4853 20.1924 9.84408L21.7924 10.4184ZM17.1114 17.9574C18.296 17.9574 19.3531 17.2137 19.7533 16.0988L18.1533 15.5244C17.9955 15.9641 17.5786 16.2574 17.1114 16.2574V17.9574ZM7.46542 15.9759C7.82782 17.1537 8.91603 17.9574 10.1483 17.9574V16.2574C9.66234 16.2574 9.23317 15.9405 9.09024 15.4759L7.46542 15.9759ZM3.34338 5.2366C3.82938 5.2366 4.25855 5.55357 4.40148 6.01808L6.0263 5.51813C5.6639 4.34032 4.57569 3.5366 3.34338 3.5366V5.2366Z" fill="white"/>
<circle cx="10.1707" cy="20.5322" r="1.46779" fill="white"/>
<circle cx="17.0204" cy="20.5322" r="1.46779" fill="white"/>
</svg>
